<mxfile host="Electron" modified="2023-07-26T09:01:57.820Z" agent="Mozilla/5.0 (Windows NT 10.0; Win64; x64) AppleWebKit/537.36 (KHTML, like Gecko) draw.io/21.5.0 Chrome/112.0.5615.204 Electron/24.5.1 Safari/537.36" etag="MwbX7uRzMCvEX-AMoSKZ" version="21.5.0" type="device">
  <diagram name="第 1 页" id="nYgWChBJ_kAycXz4Y21b">
    <mxGraphModel dx="1728" dy="1004" grid="1" gridSize="10" guides="1" tooltips="1" connect="1" arrows="1" fold="1" page="1" pageScale="1" pageWidth="1169" pageHeight="827" math="0" shadow="0">
      <root>
        <mxCell id="0" />
        <mxCell id="1" parent="0" />
        <mxCell id="L05l1fjD8tcKebmYh1gJ-54" value="&lt;b&gt;BPU&lt;/b&gt;" style="rounded=1;whiteSpace=wrap;html=1;" vertex="1" parent="1">
          <mxGeometry x="10" y="240" width="50" height="280" as="geometry" />
        </mxCell>
        <mxCell id="L05l1fjD8tcKebmYh1gJ-55" value="&lt;b&gt;Fetch&lt;/b&gt;" style="rounded=1;whiteSpace=wrap;html=1;" vertex="1" parent="1">
          <mxGeometry x="177" y="239" width="53" height="280" as="geometry" />
        </mxCell>
        <mxCell id="L05l1fjD8tcKebmYh1gJ-56" value="&lt;b&gt;Decode&lt;/b&gt;" style="rounded=1;whiteSpace=wrap;html=1;" vertex="1" parent="1">
          <mxGeometry x="343" y="239" width="56" height="280" as="geometry" />
        </mxCell>
        <mxCell id="L05l1fjD8tcKebmYh1gJ-63" value="" style="endArrow=classic;html=1;rounded=0;exitX=1.005;exitY=0.283;exitDx=0;exitDy=0;exitPerimeter=0;entryX=-0.002;entryY=0.285;entryDx=0;entryDy=0;entryPerimeter=0;strokeWidth=3;endFill=1;" edge="1" parent="1" source="L05l1fjD8tcKebmYh1gJ-54" target="L05l1fjD8tcKebmYh1gJ-55">
          <mxGeometry width="50" height="50" relative="1" as="geometry">
            <mxPoint x="99" y="299" as="sourcePoint" />
            <mxPoint x="149" y="249" as="targetPoint" />
          </mxGeometry>
        </mxCell>
        <mxCell id="L05l1fjD8tcKebmYh1gJ-64" value="&lt;font style=&quot;font-size: 11px;&quot;&gt;next_pc_f_o[31:0]&lt;/font&gt;" style="text;strokeColor=none;align=center;fillColor=none;html=1;verticalAlign=middle;whiteSpace=wrap;rounded=0;" vertex="1" parent="1">
          <mxGeometry x="56" y="299.31" width="100" height="20" as="geometry" />
        </mxCell>
        <mxCell id="L05l1fjD8tcKebmYh1gJ-65" value="" style="endArrow=classic;html=1;rounded=0;entryX=-0.003;entryY=0.285;entryDx=0;entryDy=0;entryPerimeter=0;strokeWidth=3;exitX=0.997;exitY=0.284;exitDx=0;exitDy=0;exitPerimeter=0;" edge="1" parent="1" source="L05l1fjD8tcKebmYh1gJ-55" target="L05l1fjD8tcKebmYh1gJ-56">
          <mxGeometry width="50" height="50" relative="1" as="geometry">
            <mxPoint x="259" y="319" as="sourcePoint" />
            <mxPoint x="419" y="318" as="targetPoint" />
          </mxGeometry>
        </mxCell>
        <mxCell id="L05l1fjD8tcKebmYh1gJ-66" value="&lt;font style=&quot;font-size: 11px;&quot;&gt;fetch_pc_o[31:0]&lt;/font&gt;" style="text;strokeColor=none;align=center;fillColor=none;html=1;verticalAlign=middle;whiteSpace=wrap;rounded=0;" vertex="1" parent="1">
          <mxGeometry x="223" y="299" width="100" height="20" as="geometry" />
        </mxCell>
        <mxCell id="L05l1fjD8tcKebmYh1gJ-67" value="" style="endArrow=classic;html=1;rounded=0;exitX=1;exitY=0.57;exitDx=0;exitDy=0;exitPerimeter=0;entryX=-0.007;entryY=0.57;entryDx=0;entryDy=0;entryPerimeter=0;strokeWidth=4;" edge="1" parent="1" source="L05l1fjD8tcKebmYh1gJ-55" target="L05l1fjD8tcKebmYh1gJ-56">
          <mxGeometry width="50" height="50" relative="1" as="geometry">
            <mxPoint x="299" y="398.13" as="sourcePoint" />
            <mxPoint x="419" y="398.13" as="targetPoint" />
          </mxGeometry>
        </mxCell>
        <mxCell id="L05l1fjD8tcKebmYh1gJ-68" value="&lt;font style=&quot;font-size: 11px;&quot;&gt;fetch_instr_o[63:0]&lt;/font&gt;" style="text;strokeColor=none;align=center;fillColor=none;html=1;verticalAlign=middle;whiteSpace=wrap;rounded=0;" vertex="1" parent="1">
          <mxGeometry x="228" y="378.5" width="100" height="20" as="geometry" />
        </mxCell>
        <mxCell id="L05l1fjD8tcKebmYh1gJ-69" value="" style="endArrow=classic;html=1;rounded=0;exitX=0.999;exitY=0.214;exitDx=0;exitDy=0;exitPerimeter=0;entryX=-0.003;entryY=0.214;entryDx=0;entryDy=0;entryPerimeter=0;strokeWidth=3;" edge="1" parent="1" source="L05l1fjD8tcKebmYh1gJ-56">
          <mxGeometry width="50" height="50" relative="1" as="geometry">
            <mxPoint x="448.6199999999999" y="298.20000000000005" as="sourcePoint" />
            <mxPoint x="538.52" y="298.91999999999996" as="targetPoint" />
          </mxGeometry>
        </mxCell>
        <mxCell id="L05l1fjD8tcKebmYh1gJ-70" value="&lt;font style=&quot;font-size: 11px;&quot;&gt;fetch_out0_instr_o[31:0]&lt;/font&gt;" style="text;strokeColor=none;align=center;fillColor=none;html=1;verticalAlign=middle;whiteSpace=wrap;rounded=0;" vertex="1" parent="1">
          <mxGeometry x="393" y="280" width="135" height="20" as="geometry" />
        </mxCell>
        <mxCell id="L05l1fjD8tcKebmYh1gJ-71" value="" style="endArrow=classic;html=1;rounded=0;exitX=1;exitY=0.428;exitDx=0;exitDy=0;exitPerimeter=0;entryX=-0.001;entryY=0.428;entryDx=0;entryDy=0;entryPerimeter=0;strokeWidth=3;" edge="1" parent="1" source="L05l1fjD8tcKebmYh1gJ-56">
          <mxGeometry width="50" height="50" relative="1" as="geometry">
            <mxPoint x="449" y="357.8399999999999" as="sourcePoint" />
            <mxPoint x="538.8399999999999" y="358.84000000000003" as="targetPoint" />
          </mxGeometry>
        </mxCell>
        <mxCell id="L05l1fjD8tcKebmYh1gJ-72" value="&lt;font style=&quot;font-size: 11px;&quot;&gt;fetch_out1_instr_o[31:0]&lt;/font&gt;" style="text;strokeColor=none;align=center;fillColor=none;html=1;verticalAlign=middle;whiteSpace=wrap;rounded=0;" vertex="1" parent="1">
          <mxGeometry x="391" y="340" width="141" height="20" as="geometry" />
        </mxCell>
        <mxCell id="L05l1fjD8tcKebmYh1gJ-73" value="" style="endArrow=classic;html=1;rounded=0;exitX=0.997;exitY=0.642;exitDx=0;exitDy=0;exitPerimeter=0;entryX=0;entryY=0.641;entryDx=0;entryDy=0;entryPerimeter=0;strokeWidth=3;" edge="1" parent="1" source="L05l1fjD8tcKebmYh1gJ-56">
          <mxGeometry width="50" height="50" relative="1" as="geometry">
            <mxPoint x="449.076" y="418.5999999999999" as="sourcePoint" />
            <mxPoint x="539" y="418.48" as="targetPoint" />
          </mxGeometry>
        </mxCell>
        <mxCell id="L05l1fjD8tcKebmYh1gJ-74" value="&lt;font style=&quot;font-size: 11px;&quot;&gt;fetch_out0_pc_o[31:0]&lt;/font&gt;" style="text;strokeColor=none;align=center;fillColor=none;html=1;verticalAlign=middle;whiteSpace=wrap;rounded=0;" vertex="1" parent="1">
          <mxGeometry x="388" y="400" width="139" height="20" as="geometry" />
        </mxCell>
        <mxCell id="L05l1fjD8tcKebmYh1gJ-75" value="" style="endArrow=classic;html=1;rounded=0;exitX=0.999;exitY=0.857;exitDx=0;exitDy=0;exitPerimeter=0;entryX=0;entryY=0.857;entryDx=0;entryDy=0;entryPerimeter=0;strokeWidth=3;" edge="1" parent="1" source="L05l1fjD8tcKebmYh1gJ-56">
          <mxGeometry width="50" height="50" relative="1" as="geometry">
            <mxPoint x="448.924" y="478.52" as="sourcePoint" />
            <mxPoint x="539" y="478.96000000000004" as="targetPoint" />
          </mxGeometry>
        </mxCell>
        <mxCell id="L05l1fjD8tcKebmYh1gJ-76" value="&lt;font style=&quot;font-size: 11px;&quot;&gt;fetch_out1_pc_o[31:0]&lt;/font&gt;" style="text;strokeColor=none;align=center;fillColor=none;html=1;verticalAlign=middle;whiteSpace=wrap;rounded=0;" vertex="1" parent="1">
          <mxGeometry x="392" y="460" width="130" height="20" as="geometry" />
        </mxCell>
        <mxCell id="L05l1fjD8tcKebmYh1gJ-77" value="&lt;b&gt;Bypass&lt;br&gt;Network&lt;br&gt;&lt;/b&gt;" style="rounded=1;whiteSpace=wrap;html=1;" vertex="1" parent="1">
          <mxGeometry x="549" y="250.31" width="140" height="45.38" as="geometry" />
        </mxCell>
        <mxCell id="L05l1fjD8tcKebmYh1gJ-100" value="" style="endArrow=classic;html=1;rounded=0;entryX=0.5;entryY=0;entryDx=0;entryDy=0;exitX=0.185;exitY=0;exitDx=0;exitDy=0;exitPerimeter=0;" edge="1" parent="1" target="L05l1fjD8tcKebmYh1gJ-56">
          <mxGeometry width="50" height="50" relative="1" as="geometry">
            <mxPoint x="568.6000000000001" y="239" as="sourcePoint" />
            <mxPoint x="628" y="189" as="targetPoint" />
            <Array as="points">
              <mxPoint x="569" y="178" />
              <mxPoint x="371" y="178" />
            </Array>
          </mxGeometry>
        </mxCell>
        <mxCell id="L05l1fjD8tcKebmYh1gJ-101" value="" style="endArrow=classic;html=1;rounded=0;entryX=0.79;entryY=0.001;entryDx=0;entryDy=0;exitX=0.185;exitY=0.001;exitDx=0;exitDy=0;exitPerimeter=0;entryPerimeter=0;" edge="1" parent="1" target="L05l1fjD8tcKebmYh1gJ-55">
          <mxGeometry width="50" height="50" relative="1" as="geometry">
            <mxPoint x="568.6000000000001" y="239.27999999999997" as="sourcePoint" />
            <mxPoint x="370.85" y="239" as="targetPoint" />
            <Array as="points">
              <mxPoint x="569" y="178" />
              <mxPoint x="219" y="178" />
            </Array>
          </mxGeometry>
        </mxCell>
        <mxCell id="L05l1fjD8tcKebmYh1gJ-102" value="&lt;font style=&quot;font-size: 11px;&quot;&gt;branch_request_o&lt;/font&gt;" style="text;strokeColor=none;align=center;fillColor=none;html=1;verticalAlign=middle;whiteSpace=wrap;rounded=0;" vertex="1" parent="1">
          <mxGeometry x="437" y="160" width="90" height="20" as="geometry" />
        </mxCell>
        <mxCell id="L05l1fjD8tcKebmYh1gJ-103" value="&lt;font style=&quot;font-size: 11px;&quot;&gt;branch_request_o&lt;/font&gt;" style="text;strokeColor=none;align=center;fillColor=none;html=1;verticalAlign=middle;whiteSpace=wrap;rounded=0;" vertex="1" parent="1">
          <mxGeometry x="253" y="160" width="90" height="20" as="geometry" />
        </mxCell>
        <mxCell id="L05l1fjD8tcKebmYh1gJ-104" value="" style="endArrow=classic;html=1;rounded=0;exitX=0.312;exitY=0;exitDx=0;exitDy=0;exitPerimeter=0;" edge="1" parent="1">
          <mxGeometry width="50" height="50" relative="1" as="geometry">
            <mxPoint x="588.9199999999998" y="239" as="sourcePoint" />
            <mxPoint x="189" y="239" as="targetPoint" />
            <Array as="points">
              <mxPoint x="589" y="158" />
              <mxPoint x="189" y="158" />
            </Array>
          </mxGeometry>
        </mxCell>
        <mxCell id="L05l1fjD8tcKebmYh1gJ-105" value="&lt;font style=&quot;font-size: 11px;&quot;&gt;branch_pc_o[31:0]&lt;/font&gt;" style="text;strokeColor=none;align=center;fillColor=none;html=1;verticalAlign=middle;whiteSpace=wrap;rounded=0;" vertex="1" parent="1">
          <mxGeometry x="325" y="140" width="90" height="20" as="geometry" />
        </mxCell>
        <mxCell id="L05l1fjD8tcKebmYh1gJ-107" value="" style="endArrow=classic;html=1;rounded=0;strokeWidth=3;entryX=0.001;entryY=0.17;entryDx=0;entryDy=0;entryPerimeter=0;exitX=0.75;exitY=1;exitDx=0;exitDy=0;" edge="1" parent="1" target="L05l1fjD8tcKebmYh1gJ-123">
          <mxGeometry width="50" height="50" relative="1" as="geometry">
            <mxPoint x="810" y="120" as="sourcePoint" />
            <mxPoint x="880.3200000000002" y="339.8799999999999" as="targetPoint" />
            <Array as="points">
              <mxPoint x="810" y="320" />
            </Array>
          </mxGeometry>
        </mxCell>
        <mxCell id="L05l1fjD8tcKebmYh1gJ-108" value="&lt;font style=&quot;font-size: 11px;&quot;&gt;irq_ID&lt;/font&gt;" style="text;strokeColor=none;align=center;fillColor=none;html=1;verticalAlign=middle;whiteSpace=wrap;rounded=0;" vertex="1" parent="1">
          <mxGeometry x="825" y="301.31" width="50" height="20" as="geometry" />
        </mxCell>
        <mxCell id="L05l1fjD8tcKebmYh1gJ-110" value="" style="endArrow=classic;html=1;rounded=0;strokeWidth=3;entryX=-0.003;entryY=0.421;entryDx=0;entryDy=0;exitX=0.75;exitY=1;exitDx=0;exitDy=0;entryPerimeter=0;" edge="1" parent="1" target="L05l1fjD8tcKebmYh1gJ-123">
          <mxGeometry width="50" height="50" relative="1" as="geometry">
            <mxPoint x="780" y="120" as="sourcePoint" />
            <mxPoint x="880" y="379" as="targetPoint" />
            <Array as="points">
              <mxPoint x="780" y="350" />
            </Array>
          </mxGeometry>
        </mxCell>
        <mxCell id="L05l1fjD8tcKebmYh1gJ-111" value="&lt;font style=&quot;font-size: 11px;&quot;&gt;intr_i&lt;/font&gt;" style="text;strokeColor=none;align=center;fillColor=none;html=1;verticalAlign=middle;whiteSpace=wrap;rounded=0;" vertex="1" parent="1">
          <mxGeometry x="825" y="330" width="50" height="20" as="geometry" />
        </mxCell>
        <mxCell id="L05l1fjD8tcKebmYh1gJ-115" value="GIC 400" style="rounded=1;whiteSpace=wrap;html=1;" vertex="1" parent="1">
          <mxGeometry x="740" y="60" width="110" height="60" as="geometry" />
        </mxCell>
        <mxCell id="L05l1fjD8tcKebmYh1gJ-117" value="" style="endArrow=classic;html=1;rounded=0;exitX=1.006;exitY=0.42;exitDx=0;exitDy=0;exitPerimeter=0;strokeWidth=3;entryX=0.568;entryY=1.001;entryDx=0;entryDy=0;entryPerimeter=0;" edge="1" parent="1" source="L05l1fjD8tcKebmYh1gJ-123">
          <mxGeometry width="50" height="50" relative="1" as="geometry">
            <mxPoint x="960" y="378.5" as="sourcePoint" />
            <mxPoint x="629.8799999999999" y="519.28" as="targetPoint" />
            <Array as="points">
              <mxPoint x="1050" y="350" />
              <mxPoint x="1050" y="610" />
              <mxPoint x="630" y="610" />
            </Array>
          </mxGeometry>
        </mxCell>
        <mxCell id="L05l1fjD8tcKebmYh1gJ-118" value="&lt;font style=&quot;font-size: 11px;&quot;&gt;take_interrupt_i&lt;/font&gt;" style="text;strokeColor=none;align=center;fillColor=none;html=1;verticalAlign=middle;whiteSpace=wrap;rounded=0;" vertex="1" parent="1">
          <mxGeometry x="735" y="589" width="80" height="20" as="geometry" />
        </mxCell>
        <mxCell id="L05l1fjD8tcKebmYh1gJ-120" value="" style="endArrow=classic;html=1;rounded=0;exitX=1.001;exitY=0.171;exitDx=0;exitDy=0;exitPerimeter=0;strokeWidth=3;" edge="1" parent="1" source="L05l1fjD8tcKebmYh1gJ-123">
          <mxGeometry width="50" height="50" relative="1" as="geometry">
            <mxPoint x="960" y="340" as="sourcePoint" />
            <mxPoint x="580" y="520" as="targetPoint" />
            <Array as="points">
              <mxPoint x="1080" y="320" />
              <mxPoint x="1080" y="640" />
              <mxPoint x="580" y="640" />
            </Array>
          </mxGeometry>
        </mxCell>
        <mxCell id="L05l1fjD8tcKebmYh1gJ-121" value="&lt;b&gt;Issue&lt;/b&gt;" style="rounded=1;whiteSpace=wrap;html=1;arcSize=7;" vertex="1" parent="1">
          <mxGeometry x="539" y="240" width="160" height="280" as="geometry" />
        </mxCell>
        <mxCell id="L05l1fjD8tcKebmYh1gJ-122" value="&lt;font style=&quot;font-size: 11px;&quot;&gt;branch_csr_pc_i[31:0]&lt;/font&gt;" style="text;strokeColor=none;align=center;fillColor=none;html=1;verticalAlign=middle;whiteSpace=wrap;rounded=0;" vertex="1" parent="1">
          <mxGeometry x="735" y="626" width="115" height="10" as="geometry" />
        </mxCell>
        <mxCell id="L05l1fjD8tcKebmYh1gJ-123" value="&lt;b&gt;CSR&lt;/b&gt;" style="rounded=1;whiteSpace=wrap;html=1;" vertex="1" parent="1">
          <mxGeometry x="880" y="299" width="80" height="121" as="geometry" />
        </mxCell>
        <mxCell id="L05l1fjD8tcKebmYh1gJ-125" value="" style="endArrow=classic;html=1;rounded=0;exitX=1;exitY=0.428;exitDx=0;exitDy=0;exitPerimeter=0;entryX=-0.008;entryY=0.666;entryDx=0;entryDy=0;entryPerimeter=0;strokeWidth=3;" edge="1" parent="1" target="L05l1fjD8tcKebmYh1gJ-123">
          <mxGeometry width="50" height="50" relative="1" as="geometry">
            <mxPoint x="699" y="380.04" as="sourcePoint" />
            <mxPoint x="838.8399999999999" y="379.88000000000005" as="targetPoint" />
          </mxGeometry>
        </mxCell>
        <mxCell id="L05l1fjD8tcKebmYh1gJ-126" value="&lt;font style=&quot;font-size: 11px;&quot;&gt;WFI_Inst[31:0]&lt;/font&gt;" style="text;strokeColor=none;align=center;fillColor=none;html=1;verticalAlign=middle;whiteSpace=wrap;rounded=0;" vertex="1" parent="1">
          <mxGeometry x="790" y="359.5" width="71" height="20" as="geometry" />
        </mxCell>
        <mxCell id="L05l1fjD8tcKebmYh1gJ-127" value="" style="endArrow=classic;html=1;rounded=0;exitX=1.006;exitY=0.42;exitDx=0;exitDy=0;exitPerimeter=0;strokeWidth=3;entryX=0.814;entryY=1.002;entryDx=0;entryDy=0;entryPerimeter=0;" edge="1" parent="1" target="L05l1fjD8tcKebmYh1gJ-121">
          <mxGeometry width="50" height="50" relative="1" as="geometry">
            <mxPoint x="960.12" y="379.5" as="sourcePoint" />
            <mxPoint x="629.9999999999999" y="548.78" as="targetPoint" />
            <Array as="points">
              <mxPoint x="1020" y="380" />
              <mxPoint x="1020" y="580" />
              <mxPoint x="669" y="580" />
            </Array>
          </mxGeometry>
        </mxCell>
      </root>
    </mxGraphModel>
  </diagram>
</mxfile>
